<svg fill="none" height="100%" viewBox="0 0 688 601" width="100%" xmlns="http://www.w3.org/2000/svg">
                              <g id="person">
                                    <g>
                                          <g id="plant-top">
                                                <path d="M99.8469 210.77C99.8469 210.77 155.815 266.739 124.222 349.756C92.6304 432.773 178.373 570.942 178.373 570.942C178.373 570.942 177.456 570.805 175.753 570.507C60.8092 550.217 3.69608 418.753 67.6439 321.119C91.378 284.776 110.882 242.187 99.8469 210.77Z"
                                                      fill="#3B83CA" id="Vector" />
                                                <path d="M99.8469 210.77C99.8469 210.77 131.439 279.377 99.8469 335.338C68.2548 391.299 94.4326 548.399 178.38 570.942"
                                                      id="Vector_2" stroke="#535461" stroke-miterlimit="10"
                                                      stroke-width="2" />
                                          </g>
                                          <g id="plant-bottom">
                                                <path d="M0.1604 437.134C0.1604 437.134 64.0242 426.962 69.8432 484.198C75.6622 541.435 192.653 549.369 192.653 549.369C192.653 549.369 191.889 549.888 190.461 550.828C93.8675 614.211 1.53496 591.217 15.4562 507.024C20.6261 475.722 20.1985 444.282 0.1604 437.134Z"
                                                      fill="#3B83CA" id="Vector_3" />
                                                <path d="M0.1604 437.134C0.1604 437.134 64.0242 426.962 69.8432 484.198C75.6622 541.435 192.653 549.369 192.653 549.369C192.653 549.369 191.889 549.888 190.461 550.828C93.8675 614.211 1.53496 591.217 15.4562 507.024C20.6261 475.722 20.1985 444.282 0.1604 437.134Z"
                                                      fill="#F5F5F5" id="Vector_4" opacity="0.2" />
                                                <path d="M0.1604 437.134C0.1604 437.134 49.7287 448.016 45.6585 493.087C41.5882 538.159 119.274 592.218 192.653 549.369"
                                                      id="Vector_5" stroke="#535461" stroke-miterlimit="10"
                                                      stroke-width="2" />
                                          </g>
                                          <g id="bricks-left">
                                                <path d="M40.1907 216.879H0.481079V237.498H40.1907V216.879Z" fill="#5335EC"
                                                      id="b21" opacity="0.4" />
                                                <path d="M68.4457 240.553H28.7361V261.172H68.4457V240.553Z" fill="#5335EC"
                                                      id="b20" opacity="0.4" />
                                                <path d="M283.03 0H243.321V20.6188H283.03V0Z" fill="#5335EC" id="b19"
                                                      opacity="0.4" />
                                                <path d="M71.5003 265.754H31.7906V286.372H71.5003V265.754Z" fill="#5335EC"
                                                      id="b18" opacity="0.4" />
                                                <path d="M311.285 23.6733H271.576V44.2921H311.285V23.6733Z" fill="#5335EC"
                                                      id="b17" opacity="0.4" />
                                                <path d="M166.193 163.423H126.483V184.042H166.193V163.423Z" fill="#5335EC"
                                                      id="b16" opacity="0.4" />
                                                <path d="M194.447 187.097H154.738V207.715H194.447V187.097Z" fill="#5335EC"
                                                      id="b15" opacity="0.4" />
                                                <path d="M270.049 174.114H230.339V194.733H270.049V174.114Z" fill="#5335EC"
                                                      id="b14" opacity="0.4" />
                                                <path d="M197.502 212.297H157.792V232.916H197.502V212.297Z" fill="#5335EC"
                                                      id="b13" opacity="0.4" />
                                          </g>
                                          <g id="bricks-right">
                                                <path d="M622.853 216.116H583.144V236.734H622.853V216.116Z" fill="#5335EC"
                                                      id="b12" opacity="0.4" />
                                                <path d="M625.908 241.316H586.198V261.935H625.908V241.316Z" fill="#5335EC"
                                                      id="b11" opacity="0.4" />
                                                <path d="M593.071 66.4385H553.361V87.0573H593.071V66.4385Z" fill="#5335EC"
                                                      id="b10" opacity="0.4" />
                                                <path d="M621.326 90.1118H581.616V110.731H621.326V90.1118Z" fill="#5335EC"
                                                      id="b9" opacity="0.4" />
                                                <path d="M544.961 67.9656H505.252V88.5844H544.961V67.9656Z" fill="#5335EC"
                                                      id="b8" opacity="0.4" />
                                                <path d="M672.49 113.785H632.781V134.404H672.49V113.785Z" fill="#5335EC"
                                                      id="b7" opacity="0.4" />
                                                <path d="M624.381 115.312H584.671V135.931H624.381V115.312Z" fill="#5335EC"
                                                      id="b6" opacity="0.4" />
                                                <path d="M573.216 91.6392H533.507V112.258H573.216V91.6392Z" fill="#5335EC"
                                                      id="b5" opacity="0.4" />
                                                <path d="M670.199 272.626H630.49V293.245H670.199V272.626Z" fill="#5335EC"
                                                      id="b4" opacity="0.4" />
                                                <path d="M622.09 274.154H582.38V294.773H622.09V274.154Z" fill="#5335EC"
                                                      id="b3" opacity="0.4" />
                                                <path d="M596.126 380.302H556.416V400.921H596.126V380.302Z" fill="#5335EC"
                                                      id="b2" opacity="0.4" />
                                                <path d="M649.581 381.302H609.871V401.921H649.581V381.302Z" fill="#5335EC"
                                                      id="b1" opacity="0.4" />
                                          </g>
                                          <g id="person-1">
                                                <path d="M550.322 298.675C547.751 284.366 546.174 269.895 545.603 255.368C545.095 243.404 540.899 231.89 533.59 222.404C526.281 212.918 516.217 205.926 504.778 202.385C500.609 201.102 496.019 199.903 490.948 198.826C446.504 189.388 433.003 197.628 431.468 198.712C430.168 196.349 429.038 193.896 428.085 191.373C428.009 191.114 427.94 190.854 427.864 190.609C436.66 181.229 442.019 169.146 443.068 156.329C450.483 148.814 454.813 139.742 454.813 129.975C454.813 121.575 451.605 113.694 445.993 106.874V93.6018C445.993 78.2963 439.913 63.6176 429.09 52.7949C418.267 41.9722 403.589 35.8921 388.284 35.8921H383.603C376.024 35.8921 368.52 37.3848 361.518 40.285C354.517 43.1852 348.155 47.436 342.796 52.7949C337.438 58.1537 333.187 64.5156 330.287 71.5173C327.386 78.5189 325.894 86.0233 325.894 93.6018V107.905C320.8 114.48 317.914 121.987 317.914 129.96C317.914 139.521 322.068 148.41 329.2 155.832C330.175 169.119 335.78 181.642 345.038 191.22C345.352 193.389 345.672 195.718 345.985 198.177L266.49 214.97C266.49 214.97 235.837 216.23 216.089 256.972C199.388 291.481 166.154 380.142 156.311 406.534C154.531 411.315 153.523 414.056 153.523 414.056C153.523 414.056 153.852 413.728 154.47 413.163L153.523 415.736C153.523 415.736 154.005 415.248 154.921 414.446C153.531 425.488 153.333 444.45 167.796 446.81C179.923 448.788 211.171 449.605 234.775 449.933H236.41C252.057 450.139 263.962 450.139 263.962 450.139V449.933H517.829V447.329C517.832 444.967 517.356 442.629 516.431 440.456L516.783 440.028C518.141 441.822 519.045 443.918 519.417 446.138C519.388 446.353 519.347 446.568 519.295 446.779L519.448 446.39C519.507 447.083 519.456 447.782 519.295 448.459C519.295 448.459 551.865 364.541 551.513 314.429C551.607 309.152 551.208 303.878 550.322 298.675ZM347.306 209.518C346.886 207.124 346.615 204.706 346.497 202.278C346.497 202.278 346.497 202.232 346.497 202.209C346.78 204.569 347.054 207.013 347.306 209.518ZM248.628 389.772V409.772L236.104 412.453L248.628 389.772Z"
                                                      fill="url(#paint0_linear)" id="person-bg" />
                                                <path d="M384.657 43.9639C399.962 43.9639 414.64 50.044 425.463 60.8667C436.285 71.6893 442.365 86.368 442.365 101.674V126.294H326.948V101.674C326.948 86.368 333.028 71.6893 343.85 60.8667C354.673 50.044 369.351 43.9639 384.657 43.9639Z"
                                                      fill="#FFD037" id="cap-3" />
                                                <path d="M385.061 179.567C421.391 179.567 450.842 159.33 450.842 134.366C450.842 109.402 421.391 89.1648 385.061 89.1648C348.732 89.1648 319.281 109.402 319.281 134.366C319.281 159.33 348.732 179.567 385.061 179.567Z"
                                                      fill="#FFC300" id="cap-1" />
                                                <path d="M342.893 178.154C342.893 178.154 344.813 188.189 346.5 201.769C349.327 224.524 351.501 257.233 342.893 269.366C329.147 288.74 384.893 296.407 384.893 296.407L442.594 275.421L450.666 223.76C450.666 223.76 415.538 203.981 422.816 164.026L342.893 178.154Z"
                                                      fill="#F7C4A7" id="neck" />
                                                <path d="M513.201 420.311C513.201 420.311 516.836 436.05 497.058 438.875C485.38 440.593 473.503 440.451 461.869 438.455L457.509 398.92H503.518L513.201 420.311Z"
                                                      fill="#F7C4A7" id="Vector_6" />
                                                <path d="M163.955 400.165C163.955 400.165 155.219 435.668 174.997 438.875C194.776 442.082 267.399 442.105 267.399 442.105V400.104L234.516 407.13L203.649 377.53L163.955 400.165Z"
                                                      fill="#F7C4A7" id="Vector_7" />
                                                <path d="M347.139 201.362L269.85 217.704C269.85 217.704 240.388 218.918 221.419 258.063C202.45 297.209 161.282 409.008 161.282 409.008C161.282 409.008 196.41 373.49 237.563 411.429L265.008 361.791L258.953 440.494H471.613V403.357C471.613 403.357 516.004 427.168 512.781 440.486C512.781 440.486 550.773 342.6 542.563 298.117C540.092 284.366 538.577 270.459 538.027 256.498C537.543 244.999 533.511 233.933 526.486 224.817C519.461 215.701 509.787 208.983 498.791 205.585C494.79 204.355 490.391 203.202 485.504 202.171C439.899 192.488 428.23 202.171 428.23 202.171C428.23 202.171 419.395 230.915 419.555 243.943C419.754 260.69 395.745 271.794 395.745 271.794C395.745 271.794 360.228 263.317 358.616 256.46C357.005 249.602 344.298 209.433 347.139 201.362Z"
                                                      fill="black" id="Vector_8" opacity="0.1" />
                                                <path d="M347.139 199.751L269.85 216.093C269.85 216.093 240.388 217.307 221.419 256.452C202.451 295.597 161.275 407.412 161.275 407.412C161.275 407.412 196.402 371.895 237.555 409.833L265.001 360.195L258.945 438.875H471.613V401.746C471.613 401.746 516.004 425.557 512.781 438.875C512.781 438.875 550.773 340.989 542.564 296.506C540.092 282.754 538.577 268.848 538.027 254.887C537.543 243.388 533.511 232.322 526.486 223.206C519.461 214.09 509.787 207.372 498.791 203.974C494.79 202.744 490.391 201.591 485.504 200.56C439.899 190.877 428.23 200.56 428.23 200.56C428.23 200.56 419.395 229.304 419.555 242.332C419.754 259.079 395.745 270.183 395.745 270.183C395.745 270.183 360.228 261.706 358.616 254.849C357.005 247.991 344.298 207.822 347.139 199.751Z"
                                                      fill="#ED6663" id="Vector_9" />
                                                <path d="M426.115 196.321C422.868 187.13 422.141 177.237 424.007 167.669L344.084 181.789C344.084 181.789 345.237 187.83 346.543 196.879C351.707 202.238 357.907 206.49 364.766 209.377C371.625 212.264 378.999 213.726 386.441 213.674C393.883 213.622 401.236 212.057 408.054 209.074C414.871 206.091 421.011 201.752 426.1 196.321H426.115Z"
                                                      fill="black" id="Vector_10" opacity="0.1" />
                                                <path d="M439.746 155.153C439.683 169.554 433.963 183.355 423.82 193.578C413.676 203.8 399.921 209.627 385.52 209.802C371.12 209.976 357.227 204.484 346.839 194.509C336.451 184.535 330.398 170.877 329.987 156.482C329.987 156.039 329.987 155.596 329.987 155.153C329.985 144.875 332.867 134.804 338.306 126.084C343.746 117.364 351.523 110.346 360.754 105.828C362.399 105.024 364.089 104.301 365.825 103.659C374.854 100.34 384.593 99.4344 394.08 101.032C406.238 103.103 417.343 109.21 425.603 118.369C433.862 127.528 438.794 139.203 439.601 151.51C439.698 152.717 439.746 153.931 439.746 155.153Z"
                                                      fill="#F7C4A7" id="face" />
                                                <g id="hair">
                                                      <path d="M365.741 103.705L365.817 103.659C364.081 104.301 362.391 105.024 360.747 105.828C351.516 110.346 343.738 117.364 338.299 126.084C332.859 134.804 329.977 144.875 329.979 155.153C329.979 155.596 329.979 156.039 329.979 156.481C331.686 156.435 333.364 156.032 334.905 155.298C348.284 149.051 356.287 129.944 359.464 116.618C360.609 111.876 361.686 106.477 365.741 103.705Z"
                                                            fill="#632652" id="Vector_11" />
                                                      <path d="M407.749 105.248C403.405 103.252 398.817 101.837 394.103 101.04C397.969 101.929 401.421 104.098 403.901 107.195C405.116 108.847 406.124 110.643 406.902 112.541C399.597 109.347 391.686 107.778 383.716 107.943C375.745 108.108 367.905 110.002 360.739 113.495C364.183 121.048 374.867 125.164 381.999 127.921C389.809 130.935 397.7 133.691 405.672 136.191L398.616 130.464L414.554 132.999C414.725 129.827 414.348 126.649 413.439 123.606C416.493 126.065 420.54 126.89 423.855 128.952C430.063 132.869 432.652 140.406 436.035 146.936C436.928 148.662 437.982 150.426 439.593 151.518C438.942 141.653 435.64 132.147 430.035 124.003C424.43 115.859 416.731 109.379 407.749 105.248Z"
                                                            fill="#632652" id="Vector_12" />
                                                      <path d="M323.718 146.103C323.718 146.103 380.227 75.8467 445.603 146.103L439.952 130.364C439.952 130.364 409.277 85.5681 387.49 95.236C365.703 104.904 344.305 111.785 344.305 111.785L323.718 146.103Z"
                                                            fill="black" id="Vector_13" opacity="0.1" />
                                                </g>
                                                <path d="M277.303 296.208C277.303 296.208 265.199 328.496 282.145 357.553C299.09 386.61 267.215 398.722 267.215 398.722"
                                                      fill="black" id="Vector_14" opacity="0.1" />
                                                <path d="M473.446 267.151C473.446 267.151 494.431 293.787 480.708 317.598C466.985 341.409 467.795 398.722 467.795 398.722"
                                                      fill="black" id="Vector_15" opacity="0.1" />
                                          </g>
                                          <path d="M258.739 422.533H492.01C497.148 422.533 502.076 424.574 505.709 428.207C509.343 431.841 511.384 436.768 511.384 441.907H239.373C239.373 436.77 241.413 431.843 245.045 428.21C248.676 424.577 253.602 422.535 258.739 422.533Z"
                                                fill="#535461" id="Vector_16" />
                                          <path d="M282.473 289.343H468.283C472.195 289.343 476.067 290.113 479.681 291.61C483.294 293.107 486.577 295.3 489.343 298.066C492.108 300.832 494.302 304.115 495.799 307.728C497.295 311.342 498.066 315.214 498.066 319.126V426.97H252.691V319.126C252.691 311.227 255.828 303.651 261.414 298.066C266.999 292.481 274.574 289.343 282.473 289.343Z"
                                                fill="#535461" id="Vector_17" />
                                          <path d="M375.172 378.745C383.198 378.745 389.704 372.238 389.704 364.212C389.704 356.186 383.198 349.68 375.172 349.68C367.146 349.68 360.64 356.186 360.64 364.212C360.64 372.238 367.146 378.745 375.172 378.745Z"
                                                fill="white" id="Vector_18" />
                                          <g id="person-2">
                                                <g id="cap">
                                                      <path d="M323.718 144.858C323.718 144.858 380.227 74.6018 445.603 144.858L439.952 129.119C439.952 129.119 409.277 84.3232 387.49 93.9911C365.703 103.659 344.305 110.54 344.305 110.54L323.718 144.858Z"
                                                            fill="#FFC300" id="Vector_19" />
                                                      <path d="M326.948 113.174C326.948 113.174 382.48 57.6715 442.373 112.159"
                                                            id="Vector_20" opacity="0.1" stroke="black"
                                                            stroke-miterlimit="10" />
                                                </g>
                                                <g id="headphones">
                                                      <path d="M456.401 109.639H450.827V141.247H456.401V109.639Z"
                                                            fill="#6A5C99" id="Vector_21" />
                                                      <path d="M443.389 130.089C448.484 130.089 453.371 132.114 456.975 135.717C460.578 139.32 462.602 144.207 462.602 149.303V150.54C462.602 155.636 460.578 160.523 456.975 164.126C453.371 167.73 448.484 169.754 443.389 169.754V130.089Z"
                                                            fill="#ED6663" id="Vector_22" />
                                                      <path d="M448.345 132.571C448.345 130.176 446.403 128.234 444.007 128.234C441.612 128.234 439.67 130.176 439.67 132.571V167.28C439.67 169.675 441.612 171.617 444.007 171.617C446.403 171.617 448.345 169.675 448.345 167.28V132.571Z"
                                                            fill="#6A5C99" id="Vector_23" />
                                                      <path d="M312.347 141.865H317.921V110.257H312.347V141.865Z"
                                                            fill="#6A5C99" id="Vector_24" />
                                                      <path d="M325.359 170.372C320.264 170.372 315.377 168.348 311.773 164.745C308.17 161.141 306.146 156.254 306.146 151.159V149.922C306.146 147.398 306.643 144.9 307.609 142.569C308.574 140.238 309.989 138.12 311.773 136.335C313.558 134.551 315.676 133.136 318.007 132.17C320.338 131.205 322.836 130.708 325.359 130.708V170.372Z"
                                                            fill="#ED6663" id="Vector_25" />
                                                      <path d="M320.403 167.89C320.403 170.286 322.345 172.228 324.741 172.228C327.136 172.228 329.078 170.286 329.078 167.89V133.182C329.078 130.787 327.136 128.845 324.741 128.845C322.345 128.845 320.403 130.787 320.403 133.182V167.89Z"
                                                            fill="#6A5C99" id="Vector_26" />
                                                      <path d="M450.17 75.8542C442.617 60.1533 426.168 41.1688 390.712 39.6491V39.6033H390.285L377.723 40.1989V40.26C342.503 41.879 326.131 60.7948 318.601 76.4422C313.586 87.0498 310.924 98.6161 310.797 110.349L315.134 110.242L319.472 110.142C319.659 99.6971 322.061 89.4104 326.52 79.9627C336.081 60.3214 353.675 49.8821 378.807 48.9123L389.918 48.2937C415.065 49.2559 432.667 59.7104 442.22 79.3441C446.687 88.7953 449.094 99.0875 449.284 109.539L453.622 109.638L457.959 109.745C457.834 98.0191 455.177 86.4583 450.17 75.8542Z"
                                                            fill="#ED6663" id="Vector_27" />
                                                </g>
                                          </g>
                                          <path d="M648.328 442.159H56.7236V601H648.328V442.159Z" fill="#D6D6E3"
                                                id="Vector_28" />
                                          <path d="M648.328 452.85H56.7236V473.469H648.328V452.85Z" fill="black"
                                                id="Vector_29" opacity="0.1" />
                                          <path d="M688 439.868H17.037V460.487H688V439.868Z" fill="#D6D6E3" id="Vector_30" />
                                    </g>
                              </g>
                              <defs>
                                    <linearGradient gradientUnits="userSpaceOnUse" id="paint0_linear" x1="352.522"
                                          x2="352.522" y1="450.177" y2="35.8921">
                                          <stop stop-color="#808080" stop-opacity="0.25" />
                                          <stop offset="0.54" stop-color="#808080" stop-opacity="0.12" />
                                          <stop offset="1" stop-color="#808080" stop-opacity="0.1" />
                                    </linearGradient>
                              </defs>
                        </svg>