<svg fill="none" height="100%" viewBox="0 0 409 229" width="100%"
        xmlns="http://www.w3.org/2000/svg">
        <g id="work-diagram">
            <path d="M408.996 192.543C408.996 192.76 408.996 192.978 408.996 193.198C408.749 199.989 404.965 206.742 398.058 211.511C390.732 216.563 380.906 219.222 370.819 220.92C369.242 221.185 367.657 221.424 366.076 221.656C365.269 221.767 364.466 221.877 363.666 221.98C341.211 224.926 318.284 225.49 295.464 226.031C271.594 226.62 247.702 227.202 223.806 227.504L219.066 227.559C182.81 227.95 146.568 227.622 110.444 225.567C99.2326 224.934 87.9111 224.094 76.796 222.68C75.2113 222.486 73.6315 222.274 72.0566 222.043C57.3151 219.933 43.0121 216.696 29.9806 211.441C26.9043 210.214 23.8953 208.825 20.9661 207.28C12.7809 202.938 5.87818 197.448 2.46183 190.709C0.474509 186.758 -0.343717 182.323 0.103189 177.924C0.249355 176.325 0.52419 174.74 0.925029 173.184C1.95253 169.337 3.5196 165.653 5.57967 162.244C10.9014 153.252 18.895 145.191 25.7866 136.747C40.4987 118.751 50.0807 96.0119 36.5037 77.5666C32.6083 72.2676 26.977 67.6241 23.8039 62.082C22.1064 59.0882 21.0474 55.7757 20.6934 52.3531C20.5212 50.7795 20.4559 49.1961 20.4981 47.6138C20.6486 43.9187 21.111 40.2428 21.8801 36.6254C24.0913 25.313 28.2227 13.1168 40.9814 6.06129C49.69 1.24468 60.7904 -0.250388 72.0455 0.0331588C73.6253 0.0699831 75.2051 0.143631 76.7849 0.254104C81.1005 0.537651 85.3903 1.06055 89.5327 1.72707C115.124 5.81088 138.744 14.3431 162.588 22.0467C180.742 27.9091 199.545 33.3923 219.055 36.0068C220.633 36.2167 222.21 36.4118 223.795 36.5812C228.368 37.082 232.982 37.4135 237.633 37.5497C260.781 38.2125 287.788 33.2044 303.16 20.1981C318.008 7.62632 345.855 6.61365 366.065 14.1221L366.368 14.2363C367.888 14.8156 369.362 15.4392 370.79 16.1069C385.683 23.1036 395.659 35.0862 397.067 47.6248C397.243 49.1822 397.285 50.7517 397.192 52.3162C397.194 52.3321 397.194 52.3482 397.192 52.3641C396.226 67.7898 383.608 80.7446 370.794 93.7214C369.209 95.3233 367.621 96.9251 366.051 98.538C361.893 102.802 357.865 107.1 354.372 111.522C352.776 113.527 351.309 115.63 349.979 117.819C348.756 119.838 347.712 121.96 346.857 124.16C345.956 126.438 345.377 128.83 345.136 131.267C344.777 134.761 345.416 138.285 346.979 141.431L347.012 141.505C350.432 148.28 357.67 153.082 366.051 157.339C367.595 158.127 369.183 158.893 370.794 159.652C379.882 163.938 389.674 167.919 397.118 173.21C399.125 174.605 400.998 176.183 402.713 177.924C403.411 178.646 404.07 179.404 404.688 180.196C407.406 183.628 408.919 187.858 408.993 192.234C408.996 192.344 408.996 192.444 408.996 192.543Z"
                    fill="#B9ABFF" id="sky" />
            <g id="stars">
                    <path d="M88.9357 27.8246C89.6989 27.8246 90.3177 27.2063 90.3177 26.4437C90.3177 25.681 89.6989 25.0627 88.9357 25.0627C88.1724 25.0627 87.5536 25.681 87.5536 26.4437C87.5536 27.2063 88.1724 27.8246 88.9357 27.8246Z"
                        fill="#E7EFFD" id="Vector" />
                    <path d="M44.6742 25.0589C45.4375 25.0589 46.0562 24.4407 46.0562 23.678C46.0562 22.9154 45.4375 22.2971 44.6742 22.2971C43.9109 22.2971 43.2922 22.9154 43.2922 23.678C43.2922 24.4407 43.9109 25.0589 44.6742 25.0589Z"
                        fill="#E7EFFD" id="Vector_2" />
                    <path d="M104.547 27.0363C104.875 27.0363 105.14 26.7709 105.14 26.4435C105.14 26.116 104.875 25.8506 104.547 25.8506C104.219 25.8506 103.954 26.116 103.954 26.4435C103.954 26.7709 104.219 27.0363 104.547 27.0363Z"
                        fill="#E7EFFD" id="Vector_3" />
                    <path d="M60.0864 25.6555C60.4141 25.6555 60.6798 25.39 60.6798 25.0626C60.6798 24.7352 60.4141 24.4697 60.0864 24.4697C59.7588 24.4697 59.4931 24.7352 59.4931 25.0626C59.4931 25.39 59.7588 25.6555 60.0864 25.6555Z"
                        fill="#E7EFFD" id="Vector_4" />
                    <path d="M59.4968 67.0644C59.8245 67.0644 60.0901 66.799 60.0901 66.4715C60.0901 66.1441 59.8245 65.8787 59.4968 65.8787C59.1691 65.8787 58.9034 66.1441 58.9034 66.4715C58.9034 66.799 59.1691 67.0644 59.4968 67.0644Z"
                        fill="#E7EFFD" id="Vector_5" />
                    <path d="M333.162 35.7712C333.49 35.7712 333.756 35.5058 333.756 35.1783C333.756 34.8509 333.49 34.5854 333.162 34.5854C332.834 34.5854 332.569 34.8509 332.569 35.1783C332.569 35.5058 332.834 35.7712 333.162 35.7712Z"
                        fill="#E7EFFD" id="Vector_6" />
                    <path d="M132.209 36.3161C132.537 36.3161 132.803 36.0507 132.803 35.7232C132.803 35.3958 132.537 35.1304 132.209 35.1304C131.882 35.1304 131.616 35.3958 131.616 35.7232C131.616 36.0507 131.882 36.3161 132.209 36.3161Z"
                        fill="#E7EFFD" id="Vector_7" />
                    <path d="M303.919 35.1303C304.246 35.1303 304.512 34.8649 304.512 34.5375C304.512 34.21 304.246 33.9446 303.919 33.9446C303.591 33.9446 303.325 34.21 303.325 34.5375C303.325 34.8649 303.591 35.1303 303.919 35.1303Z"
                        fill="#E7EFFD" id="Vector_8" />
                    <path d="M378.61 36.9089C378.938 36.9089 379.204 36.6434 379.204 36.316C379.204 35.9886 378.938 35.7231 378.61 35.7231C378.283 35.7231 378.017 35.9886 378.017 36.316C378.017 36.6434 378.283 36.9089 378.61 36.9089Z"
                        fill="#E7EFFD" id="Vector_9" />
                    <path d="M144.412 120.625C144.739 120.625 145.005 120.36 145.005 120.032C145.005 119.705 144.739 119.439 144.412 119.439C144.084 119.439 143.818 119.705 143.818 120.032C143.818 120.36 144.084 120.625 144.412 120.625Z"
                        fill="#E7EFFD" id="Vector_10" />
                    <path d="M279.728 67.6572C280.055 67.6572 280.321 67.3917 280.321 67.0643C280.321 66.7369 280.055 66.4714 279.728 66.4714C279.4 66.4714 279.134 66.7369 279.134 67.0643C279.134 67.3917 279.4 67.6572 279.728 67.6572Z"
                        fill="#E7EFFD" id="Vector_11" />
                    <path d="M339.354 95.7358C339.681 95.7358 339.947 95.4703 339.947 95.1429C339.947 94.8155 339.681 94.55 339.354 94.55C339.026 94.55 338.76 94.8155 338.76 95.1429C338.76 95.4703 339.026 95.7358 339.354 95.7358Z"
                        fill="#E7EFFD" id="Vector_12" />
                    <path d="M245.973 100.821C246.301 100.821 246.567 100.556 246.567 100.228C246.567 99.9009 246.301 99.6355 245.973 99.6355C245.646 99.6355 245.38 99.9009 245.38 100.228C245.38 100.556 245.646 100.821 245.973 100.821Z"
                        fill="#E7EFFD" id="Vector_13" />
                    <path d="M124.319 84.6258H123.412V83.72H123.25V84.6258H122.344V84.7879H123.25V85.6938H123.412V84.7879H124.319V84.6258Z"
                        fill="#E7EFFD" id="Vector_14" />
                    <path d="M312.745 65.7977H311.839V64.8918H311.673V65.7977H310.77V65.9597H311.673V66.8656H311.839V65.9597H312.745V65.7977Z"
                        fill="#E7EFFD" id="Vector_15" />
                    <path d="M145.794 62.1337H144.887V61.2278H144.721V62.1337H143.818V62.2994H144.721V63.2016H144.887V62.2994H145.794V62.1337Z"
                        fill="#E7EFFD" id="Vector_16" />
            </g>
            <path d="M408.996 192.543C408.996 192.76 408.996 192.978 408.996 193.199C408.808 200.041 405.016 206.864 398.058 211.666C390.732 216.718 380.906 219.377 370.819 221.075C369.242 221.34 367.657 221.579 366.076 221.811C365.269 221.921 364.466 222.032 363.666 222.135C358.138 222.872 352.58 223.435 347.004 223.906C339.523 224.54 332.005 224.978 324.479 225.302C314.816 225.725 305.135 225.965 295.464 226.204C276.562 226.668 257.645 227.132 238.71 227.452L231.991 227.563L223.795 227.673L219.055 227.729C189.204 228.045 159.396 227.883 129.641 226.668C127.66 226.59 125.684 226.504 123.711 226.41C119.288 226.216 114.866 225.992 110.444 225.736C101.58 225.236 92.6468 224.602 83.8093 223.663C81.4653 223.418 79.1313 223.147 76.807 222.849C75.2223 222.656 73.6425 222.443 72.0676 222.212C70.3134 221.967 68.5665 221.699 66.827 221.41C53.9282 219.303 41.4753 216.254 29.9916 211.607C26.9127 210.374 23.9001 208.981 20.9661 207.435V142.624C22.6024 140.728 24.2277 138.831 25.7903 136.913C27.6698 134.607 29.4757 132.232 31.1341 129.795H66.8086V107.829H129.644V156.12H231.991V117.823H350.071C348.871 119.777 347.837 121.828 346.979 123.954V124.16H346.842C345.941 126.438 345.362 128.83 345.121 131.268C344.762 134.761 345.401 138.285 346.964 141.431V141.586L346.997 141.659C350.417 148.435 357.655 153.237 366.036 157.494C367.58 158.282 369.168 159.048 370.779 159.806C379.775 164.048 389.467 167.996 396.882 173.21L397.104 173.365C399.056 174.718 400.883 176.244 402.562 177.924C402.617 177.975 402.665 178.027 402.713 178.079C403.411 178.801 404.07 179.559 404.688 180.351C407.373 183.741 408.884 187.911 408.993 192.234C408.996 192.344 408.996 192.444 408.996 192.543Z"
                    fill="#DFD9FD" id="building" />
            <g class="window" id="windows" opacity="0.5">
                    <path class="window" d="M43.2259 138.75H32.6857V145.857H43.2259V138.75Z"
                        fill="#5335EC" opacity="0.4" />
                    <path class="light-window" d="M60.0902 138.75H49.55V145.857H60.0902V138.75Z"
                        fill="#5335EC" opacity="0.4" />
                    <path class="window" d="M253.731 124.142H243.191V131.249H253.731V124.142Z"
                        fill="#5335EC" opacity="0.4" />
                    <path class="window" d="M282.186 124.142H271.646V131.249H282.186V124.142Z"
                        fill="#5335EC" opacity="0.4" />
                    <path class="window" d="M312.745 124.142H302.205V131.249H312.745V124.142Z"
                        fill="#5335EC" opacity="0.4" />
                    <path class="window" d="M253.731 145.861H243.191V152.968H253.731V145.861Z"
                        fill="#5335EC" opacity="0.4" />
                    <path class="window" d="M282.186 145.861H271.646V152.968H282.186V145.861Z"
                        fill="#5335EC" opacity="0.4" />
                    <path class="light-window"
                        d="M312.745 145.861H302.205V152.968H312.745V145.861Z" fill="#5335EC"
                        opacity="0.4" />
                    <path class="window" d="M253.731 167.576H243.191V174.683H253.731V167.576Z"
                        fill="#5335EC" opacity="0.4" />
                    <path class="window" d="M282.186 167.576H271.646V174.683H282.186V167.576Z"
                        fill="#5335EC" opacity="0.4" />
                    <path class="window" d="M312.745 167.576H302.205V174.683H312.745V167.576Z"
                        fill="#5335EC" opacity="0.4" />
                    <path class="window" d="M253.731 189.295H243.191V196.402H253.731V189.295Z"
                        fill="#5335EC" opacity="0.4" />
                    <path class="window" d="M282.186 189.295H271.646V196.402H282.186V189.295Z"
                        fill="#5335EC" opacity="0.4" />
                    <path class="window" d="M312.745 189.295H302.205V196.402H312.745V189.295Z"
                        fill="#5335EC" opacity="0.4" />
                    <path class="window" d="M253.731 211.014H243.191V218.121H253.731V211.014Z"
                        fill="#5335EC" opacity="0.4" />
                    <path class="window" d="M282.186 211.014H271.646V218.121H282.186V211.014Z"
                        fill="#5335EC" opacity="0.4" />
                    <path class="window" d="M312.745 211.014H302.205V218.121H312.745V211.014Z"
                        fill="#5335EC" opacity="0.4" />
                    <path class="window"
                        d="M346.857 124.16C345.956 126.438 345.377 128.83 345.136 131.267H339.354V124.16H346.857Z"
                        fill="#5335EC" opacity="0.4" />
                    <path class="window" d="M349.894 145.861H339.354V152.968H349.894V145.861Z"
                        fill="#5335EC" opacity="0.4" />
                    <path class="light-window"
                        d="M349.894 167.576H339.354V174.683H349.894V167.576Z" fill="#5335EC"
                        opacity="0.4" />
                    <path class="window" d="M349.894 189.295H339.354V196.402H349.894V189.295Z"
                        fill="#5335EC" opacity="0.4" />
                    <path class="window" d="M349.894 211.014H339.354V218.121H349.894V211.014Z"
                        fill="#5335EC" opacity="0.4" />
                    <path class="light-window"
                        d="M101.717 115.849H91.1764V122.956H101.717V115.849Z" fill="#5335EC"
                        opacity="0.4" />
                    <path class="window" d="M101.717 131.783H91.1764V138.89H101.717V131.783Z"
                        fill="#5335EC" opacity="0.4" />
                    <path class="window" d="M101.717 147.713H91.1764V154.82H101.717V147.713Z"
                        fill="#5335EC" opacity="0.4" />
                    <path class="window" d="M101.717 163.647H91.1764V170.754H101.717V163.647Z"
                        fill="#5335EC" opacity="0.4" />
                    <path class="light-window"
                        d="M101.717 179.577H91.1764V186.684H101.717V179.577Z" fill="#5335EC"
                        opacity="0.4" />
                    <path class="light-window"
                        d="M101.717 195.511H91.1764V202.618H101.717V195.511Z" fill="#5335EC"
                        opacity="0.4" />
                    <path class="window" d="M101.717 211.441H91.1764V218.548H101.717V211.441Z"
                        fill="#5335EC" opacity="0.4" />
                    <path class="light-window"
                        d="M43.2259 157.324H32.6857V164.431H43.2259V157.324Z" fill="#5335EC"
                        opacity="0.4" />
                    <path class="window" d="M60.0902 157.324H49.55V164.431H60.0902V157.324Z"
                        fill="#5335EC" opacity="0.4" />
                    <path class="light-window"
                        d="M43.2259 175.898H32.6857V183.006H43.2259V175.898Z" fill="#5335EC"
                        opacity="0.4" />
                    <path class="window" d="M60.0902 175.898H49.55V183.006H60.0902V175.898Z"
                        fill="#5335EC" opacity="0.4" />
                    <path class="window" d="M43.2259 194.473H32.6857V201.58H43.2259V194.473Z"
                        fill="#5335EC" opacity="0.4" />
                    <path class="window" d="M60.0902 194.473H49.55V201.58H60.0902V194.473Z"
                        fill="#5335EC" opacity="0.4" />
                    <path class="window" d="M203.411 164.402H150.717V170.754H203.411V164.402Z"
                        fill="#5335EC" opacity="0.4" />
                    <path class="window" d="M203.411 184.67H150.717V191.022H203.411V184.67Z"
                        fill="#5335EC" opacity="0.4" />
                    <path class="window" d="M203.411 204.942H150.717V211.294H203.411V204.942Z"
                        fill="#5335EC" opacity="0.4" />
            </g>
            <g id="window-pane">
                    <path d="M76.7849 0.254148V222.673C75.2002 222.479 73.6204 222.266 72.0455 222.036V0.0332031C73.6266 0.0626625 75.2039 0.143675 76.7849 0.254148Z"
                        fill="white" id="Vector_46" />
                    <path d="M223.795 36.574V227.511L219.055 227.567V35.9958C220.633 36.2094 222.213 36.4021 223.795 36.574Z"
                        fill="white" id="Vector_47" />
                    <path d="M402.713 177.924H0.10321C0.249377 176.325 0.524212 174.74 0.92505 173.185H397.133C399.138 174.586 401.006 176.173 402.713 177.924V177.924Z"
                        fill="white" id="Vector_48" />
                    <path d="M366.065 157.324C367.609 158.112 369.198 158.878 370.808 159.637V220.92C369.231 221.185 367.646 221.424 366.065 221.656V157.324Z"
                        fill="white" id="Vector_49" />
                    <path d="M370.808 16.1069V93.7177C369.224 95.3232 367.635 96.9251 366.065 98.538V14.1221L370.808 16.1069Z"
                        fill="white" id="Vector_50" />
                    <path d="M397.21 52.3164C397.212 52.3323 397.212 52.3484 397.21 52.3643H20.6935C20.5214 50.7907 20.4561 49.2074 20.4981 47.625H397.085C397.261 49.1823 397.303 50.7519 397.21 52.3164V52.3164Z"
                        fill="white" id="Vector_51" />
            </g>
            <g id="person">
                    <g>
                        <path d="M139.879 195.819C138.028 202.873 131.542 207.281 131.542 207.281C131.542 207.281 128.057 200.252 129.908 193.198C131.759 186.144 138.245 181.736 138.245 181.736C138.245 181.736 141.73 188.764 139.879 195.819Z"
                                fill="#3F3D56" id="Vector_52" />
                        <path d="M137.072 194.326C131.887 199.452 131.307 207.277 131.307 207.277C131.307 207.277 139.133 206.791 144.317 201.665C149.502 196.539 150.082 188.715 150.082 188.715C150.082 188.715 142.256 189.2 137.072 194.326Z"
                                fill="#ED6663" id="Vector_53" />
                        <path d="M143.573 205.215H123.293C121.069 205.215 119.266 207.02 119.266 209.246V213.251C119.266 215.477 121.069 217.281 123.293 217.281H143.573C145.797 217.281 147.601 215.477 147.601 213.251V209.246C147.601 207.02 145.797 205.215 143.573 205.215Z"
                                fill="#3B83CA" id="Vector_54" />
                        <g id="Group" opacity="0.7">
                                <path d="M338.555 197.508V193.16H316.831V213.268C316.831 213.825 316.941 214.376 317.154 214.891C317.367 215.405 317.679 215.872 318.072 216.266C318.466 216.66 318.932 216.972 319.446 217.185C319.96 217.398 320.511 217.508 321.068 217.508H334.319C335.442 217.508 336.52 217.061 337.314 216.266C338.109 215.471 338.555 214.393 338.555 213.268V208.812C340.051 208.809 341.485 208.212 342.542 207.153C343.599 206.093 344.192 204.657 344.192 203.16C344.192 201.663 343.599 200.227 342.542 199.167C341.485 198.107 340.051 197.51 338.555 197.508V197.508ZM338.555 206.638V199.681C339.477 199.681 340.361 200.048 341.013 200.7C341.664 201.352 342.031 202.237 342.031 203.16C342.031 204.082 341.664 204.967 341.013 205.619C340.361 206.272 339.477 206.638 338.555 206.638V206.638Z"
                                    fill="url(#paint1_linear)" id="Vector_55" opacity="0.7" />
                        </g>
                        <path d="M337.856 198.188C336.836 198.188 335.839 198.491 334.991 199.058C334.143 199.625 333.482 200.431 333.092 201.374C332.701 202.317 332.599 203.355 332.798 204.356C332.997 205.357 333.488 206.276 334.209 206.998C334.931 207.72 335.85 208.211 336.85 208.41C337.85 208.61 338.887 208.507 339.829 208.117C340.772 207.726 341.577 207.065 342.144 206.216C342.71 205.367 343.013 204.37 343.013 203.349C343.013 201.98 342.47 200.668 341.502 199.7C340.535 198.732 339.224 198.188 337.856 198.188ZM337.856 206.525C337.228 206.525 336.615 206.338 336.093 205.99C335.571 205.641 335.164 205.145 334.924 204.564C334.684 203.984 334.621 203.345 334.743 202.729C334.866 202.113 335.168 201.547 335.612 201.103C336.056 200.659 336.621 200.357 337.237 200.234C337.852 200.112 338.491 200.174 339.07 200.415C339.65 200.655 340.146 201.062 340.495 201.585C340.843 202.107 341.029 202.721 341.029 203.349C341.029 204.191 340.695 204.999 340.1 205.595C339.505 206.19 338.698 206.525 337.856 206.525V206.525Z"
                                fill="#5335EC" id="Vector_56" />
                        <path d="M337.856 198.188C336.836 198.188 335.839 198.491 334.991 199.058C334.143 199.625 333.482 200.431 333.092 201.374C332.701 202.317 332.599 203.355 332.798 204.356C332.997 205.357 333.488 206.276 334.209 206.998C334.931 207.72 335.85 208.211 336.85 208.41C337.85 208.61 338.887 208.507 339.829 208.117C340.772 207.726 341.577 207.065 342.144 206.216C342.71 205.367 343.013 204.37 343.013 203.349C343.013 201.98 342.47 200.668 341.502 199.7C340.535 198.732 339.224 198.188 337.856 198.188ZM337.856 206.525C337.228 206.525 336.615 206.338 336.093 205.99C335.571 205.641 335.164 205.145 334.924 204.564C334.684 203.984 334.621 203.345 334.743 202.729C334.866 202.113 335.168 201.547 335.612 201.103C336.056 200.659 336.621 200.357 337.237 200.234C337.852 200.112 338.491 200.174 339.07 200.415C339.65 200.655 340.146 201.062 340.495 201.585C340.843 202.107 341.029 202.721 341.029 203.349C341.029 204.191 340.695 204.999 340.1 205.595C339.505 206.19 338.698 206.525 337.856 206.525V206.525Z"
                                fill="black" id="Vector_57" opacity="0.1" />
                        <path d="M318.021 194.218H337.856V213.863C337.856 214.549 337.584 215.207 337.099 215.692C336.615 216.176 335.957 216.449 335.272 216.449H320.605C319.92 216.449 319.263 216.176 318.778 215.692C318.294 215.207 318.021 214.549 318.021 213.863V194.218Z"
                                fill="#3B83CA" id="Vector_58" />
                        <path d="M358.682 216.449H101.23V225.182H358.682V216.449Z"
                                fill="#6C6C6C" id="Vector_59" />
                        <g id="Group_2" opacity="0.7">
                                <path d="M270.57 158.014C267.811 147.991 252.168 140.672 240.398 139.049C240.399 138.975 240.403 138.902 240.403 138.828V130.248C240.416 130.243 240.429 130.24 240.441 130.235V129.91C244.618 128.355 248.388 125.87 251.464 122.644C254.541 119.417 256.844 115.532 258.2 111.283C258.928 109.967 259.561 108.601 260.095 107.195C261.352 106.737 262.301 104.664 262.301 102.172C262.305 101.32 262.186 100.472 261.946 99.6539C262.1 98.385 262.179 97.1081 262.182 95.8298C262.186 91.3613 261.252 86.9417 259.44 82.8578C257.628 78.7739 254.977 75.1171 251.661 72.1246C251.76 71.6112 251.793 71.0875 251.761 70.5659C251.494 66.4479 247.099 63.6502 242.98 63.4631C244.068 62.2278 244.783 60.7088 245.043 59.0827C245.302 57.4565 245.095 55.7901 244.446 54.2771C241.819 58.1065 236.426 58.5136 231.785 58.5437C233.788 57.7676 234.689 54.9906 233.524 53.1851C228.673 59.6917 219.217 60.8966 213.447 66.6031C212.19 67.8513 211.137 69.2891 210.326 70.8642C206.576 73.8534 203.549 77.6508 201.469 81.9734C199.39 86.296 198.311 91.0324 198.315 95.8298C198.317 97.0965 198.395 98.3619 198.546 99.6195C198.299 100.448 198.175 101.308 198.18 102.172C198.18 104.675 199.138 106.755 200.403 107.2C200.94 108.611 201.576 109.982 202.307 111.302C203.658 115.526 205.946 119.39 209 122.604C212.054 125.818 215.794 128.3 219.942 129.863V138.828C219.942 138.897 219.946 138.965 219.947 139.033C208.132 140.628 192.364 148.005 189.629 158.108C187.267 166.834 184.746 176.416 183.492 182.041C194.243 189.601 216.803 194.04 230.942 194.04C244.375 194.04 266.331 190.034 276.766 183.15C275.635 176.968 273.035 166.966 270.57 158.014Z"
                                    fill="url(#paint2_linear)" id="Vector_60" opacity="0.7" />
                        </g>
                        <g id="coder">
                                <path d="M230.913 191.552C243.871 191.552 265.051 187.687 275.118 181.046C274.027 175.083 271.519 165.434 269.141 156.798C266.114 145.801 247.005 138.176 235.605 138.176H224.621C213.186 138.176 194.05 145.845 191.06 156.89C188.782 165.306 186.35 174.55 185.14 179.977C195.511 187.27 217.274 191.552 230.913 191.552Z"
                                    fill="#ED6663" id="Vector_61" />
                                <path d="M230.244 127.639C247.257 127.639 261.049 113.837 261.049 96.8115C261.049 79.7861 247.257 65.9844 230.244 65.9844C213.231 65.9844 199.439 79.7861 199.439 96.8115C199.439 113.837 213.231 127.639 230.244 127.639Z"
                                    fill="#72351C" id="Vector_62" />
                                <path d="M220.302 122.488H240.04V138.29C240.04 140.909 239 143.421 237.149 145.273C235.299 147.126 232.788 148.166 230.171 148.166H230.171C227.553 148.166 225.043 147.126 223.192 145.273C221.341 143.421 220.302 140.909 220.302 138.29V122.488H220.302Z"
                                    fill="black" id="Vector_63" opacity="0.1" />
                                <path d="M223.133 121.756H237.209C237.96 121.756 238.68 122.055 239.211 122.586C239.742 123.118 240.04 123.838 240.04 124.59V137.558C240.04 140.178 239 142.69 237.149 144.542C235.299 146.394 232.788 147.435 230.171 147.435H230.171C227.553 147.435 225.043 146.394 223.192 144.542C221.341 142.69 220.302 140.178 220.302 137.558V124.59C220.302 123.838 220.6 123.118 221.131 122.586C221.662 122.055 222.382 121.756 223.133 121.756V121.756Z"
                                    fill="#FDA57D" id="Vector_64" />
                                <path d="M220.338 129.946C226.7 132.325 233.702 132.344 240.077 130.001V127.574H220.338V129.946Z"
                                    fill="black" id="Vector_65" opacity="0.1" />
                                <path d="M230.244 131.269C245.869 131.269 258.536 118.593 258.536 102.957C258.536 87.3205 245.869 74.6448 230.244 74.6448C214.619 74.6448 201.952 87.3205 201.952 102.957C201.952 118.593 214.619 131.269 230.244 131.269Z"
                                    fill="#FDA57D" id="Vector_66" />
                                <path d="M210.092 77.2038C210.092 77.2038 222.015 101.424 255.649 87.3548L247.819 75.0668L233.938 70.0803L210.092 77.2038Z"
                                    fill="black" id="Vector_67" opacity="0.1" />
                                <path d="M210.092 76.8478C210.092 76.8478 222.015 101.068 255.649 86.9988L247.819 74.7108L233.938 69.7244L210.092 76.8478Z"
                                    fill="#72351C" id="Vector_68" />
                                <path d="M209.986 75.2116C210.79 72.721 212.179 70.4597 214.037 68.6177C219.603 63.1129 228.725 61.9506 233.404 55.6738C234.528 57.4156 233.659 60.0944 231.727 60.8431C236.204 60.8141 241.406 60.4214 243.94 56.7273C244.566 58.1868 244.766 59.7944 244.516 61.363C244.265 62.9317 243.575 64.397 242.526 65.5887C246.499 65.7692 250.739 68.468 250.996 72.4404C251.167 75.0869 249.509 77.5926 247.336 79.1103C245.163 80.6281 242.533 81.3248 239.945 81.8958C232.391 83.5626 205.056 90.5488 209.986 75.2116Z"
                                    fill="#72351C" id="Vector_69" />
                                <path d="M258.535 103.205H257.785L243.192 116.205C229.133 109.616 218.812 116.205 218.812 116.205L203.507 103.739L201.964 103.933C202.173 111.364 205.294 118.414 210.654 123.561C216.013 128.709 223.18 131.54 230.608 131.445C238.035 131.349 245.128 128.334 250.353 123.05C255.578 117.766 258.517 110.638 258.535 103.205V103.205ZM230.201 121.191C224.697 121.191 220.235 120.075 220.235 118.698C220.235 117.321 224.697 116.205 230.201 116.205C235.705 116.205 240.167 117.321 240.167 118.698C240.167 120.075 235.705 121.191 230.201 121.191Z"
                                    fill="#72351C" id="Vector_70" />
                                <path d="M201.941 107.868C203.394 107.868 204.573 105.657 204.573 102.93C204.573 100.203 203.394 97.9917 201.941 97.9917C200.487 97.9917 199.309 100.203 199.309 102.93C199.309 105.657 200.487 107.868 201.941 107.868Z"
                                    fill="#FDA57D" id="Vector_71" />
                                <path d="M258.532 107.868C259.985 107.868 261.164 105.657 261.164 102.93C261.164 100.203 259.985 97.9917 258.532 97.9917C257.078 97.9917 255.9 100.203 255.9 102.93C255.9 105.657 257.078 107.868 258.532 107.868Z"
                                    fill="#FDA57D" id="Vector_72" />
                        </g>
                        <g id="Group_3" opacity="0.7">
                                <path d="M280.857 153.357H179.056C176.933 153.357 175.213 155.078 175.213 157.202V212.603C175.213 214.727 176.933 216.449 179.056 216.449H280.857C282.979 216.449 284.699 214.727 284.699 212.603V157.202C284.699 155.078 282.979 153.357 280.857 153.357Z"
                                    fill="url(#paint3_linear)" id="Vector_73" opacity="0.7" />
                        </g>
                        <path d="M275.604 154.521H184.308C180.38 154.521 177.196 157.707 177.196 161.638V209.332C177.196 213.263 180.38 216.449 184.308 216.449H275.604C279.532 216.449 282.716 213.263 282.716 209.332V161.638C282.716 157.707 279.532 154.521 275.604 154.521Z"
                                fill="#535461" id="Vector_74" />
                        <path d="M229.956 189.058C231.928 189.058 233.526 187.458 233.526 185.485C233.526 183.512 231.928 181.912 229.956 181.912C227.984 181.912 226.386 183.512 226.386 185.485C226.386 187.458 227.984 189.058 229.956 189.058Z"
                                fill="white" id="Vector_75" />
                        <path d="M347.773 225.183H112.139V228.755H347.773V225.183Z"
                                fill="#C7C7C7" id="Vector_76" />
                        <path d="M347.773 225.183H112.139V226.374H347.773V225.183Z" fill="black"
                                id="Vector_77" opacity="0.1" />
                        <path d="M334.286 194.218V212.578C334.286 213.605 333.878 214.589 333.153 215.315C332.428 216.041 331.444 216.449 330.418 216.449H332.401C333.427 216.449 334.411 216.041 335.136 215.315C335.862 214.589 336.269 213.605 336.269 212.578V194.218H334.286Z"
                                fill="black" id="Vector_78" opacity="0.1" />
                        <path d="M321.936 179.42C321.601 179.478 321.224 179.568 321.06 179.865C320.799 180.337 321.271 180.87 321.701 181.194C322.496 181.793 323.334 182.382 323.874 183.218C324.414 184.054 324.584 185.221 323.993 186.023C323.222 187.069 321.382 187.295 321.204 188.583C321.09 189.409 321.804 190.115 322.528 190.53C324.315 191.554 326.618 191.827 327.912 193.43C328.448 192.328 329.645 191.692 330.839 191.42C332.032 191.148 333.272 191.168 334.482 190.984C334.873 190.924 335.313 190.805 335.488 190.45C335.826 189.763 334.862 188.939 335.195 188.249C335.448 187.724 336.192 187.765 336.735 187.555C337.62 187.212 337.985 186.073 337.734 185.158C337.483 184.242 336.773 183.527 336.027 182.941C334.018 181.36 331.601 180.431 329.156 179.762C328.019 179.451 326.685 178.963 325.504 178.916C324.364 178.871 323.064 179.227 321.936 179.42Z"
                                fill="#EEEEEE" id="Vector_79" />
                    </g>
            </g>
        </g>
        <defs>
            <linearGradient gradientUnits="userSpaceOnUse" id="gradient1" x1="204.498"
                    x2="204.498" y1="227.71" y2="2.71452e-05">
                    <stop stop-color="#EEEBFE" stop-opacity="0.1" />
                    <stop offset="1" stop-color="#DCD6FF" />
            </linearGradient>
            <linearGradient gradientUnits="userSpaceOnUse" id="dark-gradient" x1="341.484"
                    x2="341.484" y1="0" y2="380.095">
                    <stop stop-color="#5639F0" />
                    <stop offset="1" stop-color="#927FF7" stop-opacity="0.1" />
            </linearGradient>
            <linearGradient gradientUnits="userSpaceOnUse" id="paint1_linear" x1="330.517"
                    x2="330.517" y1="217.508" y2="193.16">
                    <stop stop-color="#808080" stop-opacity="0.25" />
                    <stop offset="0.53514" stop-color="#808080" stop-opacity="0.12" />
                    <stop offset="1" stop-color="#808080" stop-opacity="0.1" />
            </linearGradient>
            <linearGradient gradientUnits="userSpaceOnUse" id="paint2_linear" x1="56208.4"
                    x2="56208.4" y1="91624" y2="16815">
                    <stop stop-color="#808080" stop-opacity="0.25" />
                    <stop offset="0.53514" stop-color="#808080" stop-opacity="0.12" />
                    <stop offset="1" stop-color="#808080" stop-opacity="0.1" />
            </linearGradient>
            <linearGradient gradientUnits="userSpaceOnUse" id="paint3_linear" x1="53355.1"
                    x2="53355.1" y1="38992.9" y2="23983.6">
                    <stop stop-color="#808080" stop-opacity="0.25" />
                    <stop offset="0.53514" stop-color="#808080" stop-opacity="0.12" />
                    <stop offset="1" stop-color="#808080" stop-opacity="0.1" />
            </linearGradient>
        </defs>
</svg>